<svg xmlns="http://www.w3.org/2000/svg" xmlns:xlink="http://www.w3.org/1999/xlink" width="840" height="581.04"><rect width="840" height="581.04" rx="5" ry="5" class="a"/><svg y="0%" x="0%"><circle cx="20" cy="20" r="6" fill="#ff5f58"/><circle cx="40" cy="20" r="6" fill="#ffbd2e"/><circle cx="60" cy="20" r="6" fill="#18c132"/></svg><svg height="521.04" viewBox="0 0 80 52.104" width="800" x="15" xmlns="http://www.w3.org/2000/svg" xmlns:xlink="http://www.w3.org/1999/xlink" y="50"><style>@keyframes j{0%{transform:translateX(0)}.06%{transform:translateX(-160px)}7.3%{transform:translateX(-240px)}9.72%{transform:translateX(-320px)}9.75%{transform:translateX(-400px)}10.18%{transform:translateX(-480px)}10.4%{transform:translateX(-560px)}10.62%{transform:translateX(-640px)}10.83%{transform:translateX(-720px)}11.05%{transform:translateX(-800px)}11.27%{transform:translateX(-880px)}11.48%{transform:translateX(-960px)}11.7%{transform:translateX(-1040px)}11.92%{transform:translateX(-1120px)}12.35%{transform:translateX(-1200px)}18.49%{transform:translateX(-1280px)}23.33%{transform:translateX(-1440px)}25.75%{transform:translateX(-1520px)}25.78%{transform:translateX(-1600px)}26.22%{transform:translateX(-1680px)}26.43%{transform:translateX(-1760px)}26.65%{transform:translateX(-1840px)}26.87%{transform:translateX(-1920px)}27.08%{transform:translateX(-2000px)}27.3%{transform:translateX(-2080px)}27.52%{transform:translateX(-2160px)}27.74%{transform:translateX(-2240px)}27.95%{transform:translateX(-2320px)}34.01%{transform:translateX(-2400px)}41.25%{transform:translateX(-2560px)}43.68%{transform:translateX(-2640px)}43.71%{transform:translateX(-2720px)}44.14%{transform:translateX(-2800px)}44.36%{transform:translateX(-2880px)}44.57%{transform:translateX(-2960px)}44.79%{transform:translateX(-3040px)}45.01%{transform:translateX(-3120px)}45.23%{transform:translateX(-3200px)}45.44%{transform:translateX(-3280px)}45.66%{transform:translateX(-3360px)}45.88%{transform:translateX(-3440px)}52%{transform:translateX(-3520px)}59.24%{transform:translateX(-3680px)}61.67%{transform:translateX(-3760px)}68.91%{transform:translateX(-3840px)}68.94%{transform:translateX(-3920px)}69.37%{transform:translateX(-4000px)}69.59%{transform:translateX(-4080px)}69.81%{transform:translateX(-4160px)}70.02%{transform:translateX(-4240px)}70.24%{transform:translateX(-4320px)}70.46%{transform:translateX(-4400px)}70.68%{transform:translateX(-4480px)}70.89%{transform:translateX(-4560px)}71.11%{transform:translateX(-4640px)}71.55%{transform:translateX(-4720px)}71.77%{transform:translateX(-4800px)}71.99%{transform:translateX(-4880px)}72.2%{transform:translateX(-4960px)}73.43%{transform:translateX(-5040px)}75.88%{transform:translateX(-5120px)}85.52%{transform:translateX(-5280px)}87.94%{transform:translateX(-5360px)}90.36%{transform:translateX(-5440px)}to{transform:translateX(-5520px)}}.a{fill:#282d35}.f,.g,.h,.l{fill:#a8cc8c;white-space:pre}.g,.h,.l{fill:#71bef2}.h,.l{fill:#b9c0cb}.l{fill:#dbab79;font-weight:700}</style><g font-family="Monaco,Consolas,Menlo,'Bitstream Vera Sans Mono','Powerline Symbols',monospace" font-size="1.67"><defs><symbol id="1"><text y="1.67" class="f">#</text><text x="2.004" y="1.67" class="f">TypeMill</text><text x="11.022" y="1.67" class="f">-</text><text x="13.026" y="1.67" class="f">AI-Powered</text><text x="24.048" y="1.67" class="f">Code</text><text x="29.058" y="1.67" class="f">Refactoring</text><text x="41.082" y="1.67" class="f">via</text><text x="45.09" y="1.67" class="f">MCP</text></symbol><symbol id="2"><text y="1.67" class="f">#</text><text x="2.004" y="1.67" class="f">Step</text><text x="7.014" y="1.67" class="f">1:</text><text x="10.02" y="1.67" class="f">Check</text><text x="16.032" y="1.67" class="f">installation</text></symbol><symbol id="3"><text y="1.67" class="g">$</text></symbol><symbol id="4"><text y="1.67" class="g">$</text><text x="2.004" y="1.67" class="h">npx</text></symbol><symbol id="5"><text y="1.67" class="g">$</text><text x="2.004" y="1.67" class="h">npx</text><text x="6.012" y="1.67" class="h">@g</text></symbol><symbol id="6"><text y="1.67" class="g">$</text><text x="2.004" y="1.67" class="h">npx</text><text x="6.012" y="1.67" class="h">@goob</text></symbol><symbol id="7"><text y="1.67" class="g">$</text><text x="2.004" y="1.67" class="h">npx</text><text x="6.012" y="1.67" class="h">@goobits</text></symbol><symbol id="8"><text y="1.67" class="g">$</text><text x="2.004" y="1.67" class="h">npx</text><text x="6.012" y="1.67" class="h">@goobits/ty</text></symbol><symbol id="9"><text y="1.67" class="g">$</text><text x="2.004" y="1.67" class="h">npx</text><text x="6.012" y="1.67" class="h">@goobits/typem</text></symbol><symbol id="10"><text y="1.67" class="g">$</text><text x="2.004" y="1.67" class="h">npx</text><text x="6.012" y="1.67" class="h">@goobits/typemill</text></symbol><symbol id="11"><text y="1.67" class="g">$</text><text x="2.004" y="1.67" class="h">npx</text><text x="6.012" y="1.67" class="h">@goobits/typemill</text><text x="24.048" y="1.67" class="h">--version</text></symbol><symbol id="12"><text y="1.67" class="f">#</text><text x="2.004" y="1.67" class="f">Step</text><text x="7.014" y="1.67" class="f">2:</text><text x="10.02" y="1.67" class="f">View</text><text x="15.03" y="1.67" class="f">available</text><text x="25.05" y="1.67" class="f">tools</text></symbol><symbol id="13"><text y="1.67" class="g">$</text><text x="2.004" y="1.67" class="h">npx</text><text x="6.012" y="1.67" class="h">@goobits/typemill</text><text x="24.048" y="1.67" class="h">to</text></symbol><symbol id="14"><text y="1.67" class="g">$</text><text x="2.004" y="1.67" class="h">npx</text><text x="6.012" y="1.67" class="h">@goobits/typemill</text><text x="24.048" y="1.67" class="h">tools</text></symbol><symbol id="15"><text y="1.67" class="f">#</text><text x="2.004" y="1.67" class="f">Step</text><text x="7.014" y="1.67" class="f">3:</text><text x="10.02" y="1.67" class="f">Check</text><text x="16.032" y="1.67" class="f">LSP</text><text x="20.04" y="1.67" class="f">server</text><text x="27.054" y="1.67" class="f">status</text></symbol><symbol id="16"><text y="1.67" class="g">$</text><text x="2.004" y="1.67" class="h">npx</text><text x="6.012" y="1.67" class="h">@goobits/typemill</text><text x="24.048" y="1.67" class="h">status</text></symbol><symbol id="17"><text y="1.67" class="f">#</text><text x="2.004" y="1.67" class="f">Step</text><text x="7.014" y="1.67" class="f">4:</text><text x="10.02" y="1.67" class="f">Demo</text><text x="15.03" y="1.67" class="f">-</text><text x="17.034" y="1.67" class="f">Rename</text><text x="24.048" y="1.67" class="f">file</text><text x="29.058" y="1.67" class="f">with</text><text x="34.068" y="1.67" class="f">auto-import</text><text x="46.092" y="1.67" class="f">updates</text></symbol><symbol id="18"><text y="1.67" class="f">#</text><text x="2.004" y="1.67" class="f">This</text><text x="7.014" y="1.67" class="f">renames</text><text x="15.03" y="1.67" class="f">utils.ts</text><text x="24.048" y="1.67" class="f">→</text><text x="26.052" y="1.67" class="f">helpers.ts</text><text x="37.074" y="1.67" class="f">and</text><text x="41.082" y="1.67" class="f">updates</text><text x="49.098" y="1.67" class="f">all</text><text x="53.106" y="1.67" class="f">imports!</text></symbol><symbol id="19"><text y="1.67" class="g">$</text><text x="2.004" y="1.67" class="h">npx</text><text x="6.012" y="1.67" class="h">@goobits/typemill</text><text x="24.048" y="1.67" class="h">tool</text><text x="29.058" y="1.67" class="h">rename_all</text><text x="40.08" y="1.67" class="h">\</text></symbol><symbol id="20"><text x="2.004" y="1.67" class="h">--target</text><text x="11.022" y="1.67" class="h">&apos;{&quot;kind&quot;:&quot;file&quot;,&quot;filePath&quot;:&quot;src/utils.ts&quot;}&apos;</text><text x="55.11" y="1.67" class="h">\</text></symbol><symbol id="21"><text x="2.004" y="1.67" class="h">--newName</text><text x="12.024" y="1.67" class="h">&apos;src/helpers.ts&apos;</text><text x="29.058" y="1.67" class="h">\</text></symbol><symbol id="22"><text x="2.004" y="1.67" class="h">--options</text><text x="12.024" y="1.67" class="h">&apos;{&quot;dryRun&quot;:true}&apos;</text></symbol><symbol id="23"><text y="1.67" class="f">#</text><text x="2.004" y="1.67" class="f">TypeMill</text><text x="11.022" y="1.67" class="f">-</text><text x="13.026" y="1.67" class="f">Code</text><text x="18.036" y="1.67" class="f">Intelligence</text><text x="31.062" y="1.67" class="f">for</text><text x="35.07" y="1.67" class="f">AI</text><text x="38.076" y="1.67" class="f">Assistants</text></symbol><symbol id="24"><text y="1.67" class="f">#</text><text x="2.004" y="1.67" class="f">Install:</text><text x="11.022" y="1.67" class="f">npx</text><text x="15.03" y="1.67" class="f">@goobits/typemill</text><text x="33.066" y="1.67" class="f">start</text></symbol><symbol id="25"><text y="1.67" class="f">#</text><text x="2.004" y="1.67" class="f">GitHub:</text><text x="10.02" y="1.67" class="f">github.com/goobits/typemill</text></symbol><symbol id="a"><path fill="transparent" d="M0 0h80v25H0z"/></symbol></defs><path class="a" d="M0 0h80v52.104H0z"/><g style="animation-duration:41.689273s;animation-iteration-count:infinite;animation-name:j;animation-timing-function:steps(1,end)"><svg width="5600"><svg><use xlink:href="#a"/></svg><svg x="80"><use xlink:href="#a"/></svg><svg x="160"><use xlink:href="#a"/><use xlink:href="#1"/></svg><svg x="240"><use xlink:href="#a"/><use xlink:href="#1"/><use xlink:href="#2" y="2.171"/></svg><svg x="320"><use xlink:href="#a"/><use xlink:href="#1"/><use xlink:href="#2" y="2.171"/><use xlink:href="#3" y="4.342"/></svg><svg x="400"><use xlink:href="#a"/><use xlink:href="#1"/><use xlink:href="#2" y="2.171"/><use xlink:href="#4" y="4.342"/></svg><svg x="480"><use xlink:href="#a"/><use xlink:href="#1"/><use xlink:href="#2" y="2.171"/><use xlink:href="#5" y="4.342"/></svg><svg x="560"><use xlink:href="#a"/><use xlink:href="#1"/><use xlink:href="#2" y="2.171"/><use xlink:href="#6" y="4.342"/></svg><svg x="640"><use xlink:href="#a"/><use xlink:href="#1"/><use xlink:href="#2" y="2.171"/><use xlink:href="#7" y="4.342"/></svg><svg x="720"><use xlink:href="#a"/><use xlink:href="#1"/><use xlink:href="#2" y="2.171"/><use xlink:href="#8" y="4.342"/></svg><svg x="800"><use xlink:href="#a"/><use xlink:href="#1"/><use xlink:href="#2" y="2.171"/><use xlink:href="#9" y="4.342"/></svg><svg x="880"><use xlink:href="#a"/><use xlink:href="#1"/><use xlink:href="#2" y="2.171"/><use xlink:href="#10" y="4.342"/></svg><svg x="960"><use xlink:href="#a"/><use xlink:href="#1"/><use xlink:href="#2" y="2.171"/><text y="6.012" class="g">$</text><text x="2.004" y="6.012" class="h">npx</text><text x="6.012" y="6.012" class="h">@goobits/typemill</text><text x="24.048" y="6.012" class="h">--</text></svg><svg x="1040"><use xlink:href="#a"/><use xlink:href="#1"/><use xlink:href="#2" y="2.171"/><text y="6.012" class="g">$</text><text x="2.004" y="6.012" class="h">npx</text><text x="6.012" y="6.012" class="h">@goobits/typemill</text><text x="24.048" y="6.012" class="h">--ver</text></svg><svg x="1120"><use xlink:href="#a"/><use xlink:href="#1"/><use xlink:href="#2" y="2.171"/><text y="6.012" class="g">$</text><text x="2.004" y="6.012" class="h">npx</text><text x="6.012" y="6.012" class="h">@goobits/typemill</text><text x="24.048" y="6.012" class="h">--versio</text></svg><svg x="1200"><use xlink:href="#a"/><use xlink:href="#1"/><use xlink:href="#2" y="2.171"/><use xlink:href="#11" y="4.342"/></svg><svg x="1280"><use xlink:href="#a"/><use xlink:href="#1"/><use xlink:href="#2" y="2.171"/><use xlink:href="#11" y="4.342"/><text y="8.183" class="h">mill</text><text x="5.01" y="8.183" class="h">0.8.4</text></svg><svg x="1360"><use xlink:href="#a"/></svg><svg x="1440"><use xlink:href="#a"/><use xlink:href="#12"/></svg><svg x="1520"><use xlink:href="#a"/><use xlink:href="#12"/><use xlink:href="#3" y="2.171"/></svg><svg x="1600"><use xlink:href="#a"/><use xlink:href="#12"/><use xlink:href="#4" y="2.171"/></svg><svg x="1680"><use xlink:href="#a"/><use xlink:href="#12"/><use xlink:href="#5" y="2.171"/></svg><svg x="1760"><use xlink:href="#a"/><use xlink:href="#12"/><use xlink:href="#6" y="2.171"/></svg><svg x="1840"><use xlink:href="#a"/><use xlink:href="#12"/><use xlink:href="#7" y="2.171"/></svg><svg x="1920"><use xlink:href="#a"/><use xlink:href="#12"/><use xlink:href="#8" y="2.171"/></svg><svg x="2000"><use xlink:href="#a"/><use xlink:href="#12"/><use xlink:href="#9" y="2.171"/></svg><svg x="2080"><use xlink:href="#a"/><use xlink:href="#12"/><use xlink:href="#10" y="2.171"/></svg><svg x="2160"><use xlink:href="#a"/><use xlink:href="#12"/><use xlink:href="#13" y="2.171"/></svg><svg x="2240"><use xlink:href="#a"/><use xlink:href="#12"/><use xlink:href="#14" y="2.171"/></svg><svg x="2320"><use xlink:href="#a"/><use xlink:href="#12"/><use xlink:href="#14" y="2.171"/></svg><svg x="2400"><use xlink:href="#a"/><use xlink:href="#12"/><use xlink:href="#14" y="2.171"/><text y="6.012" class="h">TypeMill</text><text x="9.018" y="6.012" class="h">MCP</text><text x="13.026" y="6.012" class="h">Tools</text><text y="8.183" class="h">==================</text><text y="12.525" class="h">Code</text><text x="5.01" y="12.525" class="h">Intelligence:</text><text x="2.004" y="14.696" class="h">•</text><text x="4.008" y="14.696" class="h">inspect_code</text><text x="18.036" y="14.696" class="h">-</text><text x="20.04" y="14.696" class="h">Get</text><text x="24.048" y="14.696" class="h">definition,</text><text x="36.072" y="14.696" class="h">references,</text><text x="48.096" y="14.696" class="h">type</text><text x="53.106" y="14.696" class="h">info</text><text x="58.116" y="14.696" class="h">at</text><text x="61.122" y="14.696" class="h">a</text><text x="63.126" y="14.696" class="h">position</text><text x="2.004" y="16.867" class="h">•</text><text x="4.008" y="16.867" class="h">search_code</text><text x="18.036" y="16.867" class="h">-</text><text x="20.04" y="16.867" class="h">Search</text><text x="27.054" y="16.867" class="h">workspace</text><text x="37.074" y="16.867" class="h">symbols</text><text y="21.209" class="h">Refactoring:</text><text x="2.004" y="23.38" class="h">•</text><text x="4.008" y="23.38" class="h">rename_all</text><text x="18.036" y="23.38" class="h">-</text><text x="20.04" y="23.38" class="h">Rename</text><text x="27.054" y="23.38" class="h">files,</text><text x="34.068" y="23.38" class="h">directories,</text><text x="47.094" y="23.38" class="h">or</text><text x="50.1" y="23.38" class="h">symbols</text><text x="2.004" y="25.551" class="h">•</text><text x="4.008" y="25.551" class="h">relocate</text><text x="18.036" y="25.551" class="h">-</text><text x="20.04" y="25.551" class="h">Move</text><text x="25.05" y="25.551" class="h">files,</text><text x="32.064" y="25.551" class="h">directories,</text><text x="45.09" y="25.551" class="h">or</text><text x="48.096" y="25.551" class="h">symbols</text><text x="2.004" y="27.722" class="h">•</text><text x="4.008" y="27.722" class="h">prune</text><text x="18.036" y="27.722" class="h">-</text><text x="20.04" y="27.722" class="h">Delete</text><text x="27.054" y="27.722" class="h">with</text><text x="32.064" y="27.722" class="h">cleanup</text><text x="2.004" y="29.893" class="h">•</text><text x="4.008" y="29.893" class="h">refactor</text><text x="18.036" y="29.893" class="h">-</text><text x="20.04" y="29.893" class="h">Extract,</text><text x="29.058" y="29.893" class="h">inline,</text><text x="37.074" y="29.893" class="h">reorder,</text><text x="46.092" y="29.893" class="h">transform</text><text y="34.235" class="h">Workspace:</text><text x="2.004" y="36.406" class="h">•</text><text x="4.008" y="36.406" class="h">workspace</text><text x="18.036" y="36.406" class="h">-</text><text x="20.04" y="36.406" class="h">Find/replace,</text><text x="34.068" y="36.406" class="h">dependency</text><text x="45.09" y="36.406" class="h">extraction,</text><text x="57.114" y="36.406" class="h">verification</text><text y="40.748" class="h">All</text><text x="4.008" y="40.748" class="h">refactoring</text><text x="16.032" y="40.748" class="h">tools</text><text x="22.044" y="40.748" class="h">support</text><text x="30.06" y="40.748" class="h">dryRun</text><text x="37.074" y="40.748" class="h">mode</text><text x="42.084" y="40.748" class="h">(default:</text><text x="52.104" y="40.748" class="h">true)</text></svg><svg x="2480"><use xlink:href="#a"/></svg><svg x="2560"><use xlink:href="#a"/><use xlink:href="#15"/></svg><svg x="2640"><use xlink:href="#a"/><use xlink:href="#15"/><use xlink:href="#3" y="2.171"/></svg><svg x="2720"><use xlink:href="#a"/><use xlink:href="#15"/><use xlink:href="#4" y="2.171"/></svg><svg x="2800"><use xlink:href="#a"/><use xlink:href="#15"/><use xlink:href="#5" y="2.171"/></svg><svg x="2880"><use xlink:href="#a"/><use xlink:href="#15"/><use xlink:href="#6" y="2.171"/></svg><svg x="2960"><use xlink:href="#a"/><use xlink:href="#15"/><use xlink:href="#7" y="2.171"/></svg><svg x="3040"><use xlink:href="#a"/><use xlink:href="#15"/><use xlink:href="#8" y="2.171"/></svg><svg x="3120"><use xlink:href="#a"/><use xlink:href="#15"/><use xlink:href="#9" y="2.171"/></svg><svg x="3200"><use xlink:href="#a"/><use xlink:href="#15"/><use xlink:href="#10" y="2.171"/></svg><svg x="3280"><use xlink:href="#a"/><use xlink:href="#15"/><text y="3.841" class="g">$</text><text x="2.004" y="3.841" class="h">npx</text><text x="6.012" y="3.841" class="h">@goobits/typemill</text><text x="24.048" y="3.841" class="h">st</text></svg><svg x="3360"><use xlink:href="#a"/><use xlink:href="#15"/><text y="3.841" class="g">$</text><text x="2.004" y="3.841" class="h">npx</text><text x="6.012" y="3.841" class="h">@goobits/typemill</text><text x="24.048" y="3.841" class="h">statu</text></svg><svg x="3440"><use xlink:href="#a"/><use xlink:href="#15"/><use xlink:href="#16" y="2.171"/></svg><svg x="3520"><use xlink:href="#a"/><use xlink:href="#15"/><use xlink:href="#16" y="2.171"/><text y="6.012" class="h">TypeMill</text><text x="9.018" y="6.012" class="h">Status</text><text y="8.183" class="h">===============</text><text y="12.525" class="h">LSP</text><text x="4.008" y="12.525" class="h">Servers:</text><text x="2.004" y="14.696" class="h">✅</text><text x="4.008" y="14.696" class="h">typescript-language-server</text><text x="31.062" y="14.696" class="h">(.ts,</text><text x="37.074" y="14.696" class="h">.tsx,</text><text x="43.086" y="14.696" class="h">.js,</text><text x="48.096" y="14.696" class="h">.jsx)</text><text x="2.004" y="16.867" class="h">✅</text><text x="4.008" y="16.867" class="h">rust-analyzer</text><text x="18.036" y="16.867" class="h">(.rs)</text><text x="2.004" y="19.038" class="h">✅</text><text x="4.008" y="19.038" class="h">pylsp</text><text x="10.02" y="19.038" class="h">(.py)</text><text y="23.38" class="h">Server:</text><text x="8.016" y="23.38" class="h">Ready</text></svg><svg x="3600"><use xlink:href="#a"/></svg><svg x="3680"><use xlink:href="#a"/><use xlink:href="#17"/></svg><svg x="3760"><use xlink:href="#a"/><use xlink:href="#17"/><use xlink:href="#18" y="2.171"/></svg><svg x="3840"><use xlink:href="#a"/><use xlink:href="#17"/><use xlink:href="#18" y="2.171"/><use xlink:href="#3" y="4.342"/></svg><svg x="3920"><use xlink:href="#a"/><use xlink:href="#17"/><use xlink:href="#18" y="2.171"/><use xlink:href="#4" y="4.342"/></svg><svg x="4000"><use xlink:href="#a"/><use xlink:href="#17"/><use xlink:href="#18" y="2.171"/><use xlink:href="#5" y="4.342"/></svg><svg x="4080"><use xlink:href="#a"/><use xlink:href="#17"/><use xlink:href="#18" y="2.171"/><use xlink:href="#6" y="4.342"/></svg><svg x="4160"><use xlink:href="#a"/><use xlink:href="#17"/><use xlink:href="#18" y="2.171"/><use xlink:href="#7" y="4.342"/></svg><svg x="4240"><use xlink:href="#a"/><use xlink:href="#17"/><use xlink:href="#18" y="2.171"/><use xlink:href="#8" y="4.342"/></svg><svg x="4320"><use xlink:href="#a"/><use xlink:href="#17"/><use xlink:href="#18" y="2.171"/><use xlink:href="#9" y="4.342"/></svg><svg x="4400"><use xlink:href="#a"/><use xlink:href="#17"/><use xlink:href="#18" y="2.171"/><use xlink:href="#10" y="4.342"/></svg><svg x="4480"><use xlink:href="#a"/><use xlink:href="#17"/><use xlink:href="#18" y="2.171"/><use xlink:href="#13" y="4.342"/></svg><svg x="4560"><use xlink:href="#a"/><use xlink:href="#17"/><use xlink:href="#18" y="2.171"/><text y="6.012" class="g">$</text><text x="2.004" y="6.012" class="h">npx</text><text x="6.012" y="6.012" class="h">@goobits/typemill</text><text x="24.048" y="6.012" class="h">tool</text></svg><svg x="4640"><use xlink:href="#a"/><use xlink:href="#17"/><use xlink:href="#18" y="2.171"/><text y="6.012" class="g">$</text><text x="2.004" y="6.012" class="h">npx</text><text x="6.012" y="6.012" class="h">@goobits/typemill</text><text x="24.048" y="6.012" class="h">tool</text><text x="29.058" y="6.012" class="h">ren</text></svg><svg x="4720"><use xlink:href="#a"/><use xlink:href="#17"/><use xlink:href="#18" y="2.171"/><text y="6.012" class="g">$</text><text x="2.004" y="6.012" class="h">npx</text><text x="6.012" y="6.012" class="h">@goobits/typemill</text><text x="24.048" y="6.012" class="h">tool</text><text x="29.058" y="6.012" class="h">rename</text></svg><svg x="4800"><use xlink:href="#a"/><use xlink:href="#17"/><use xlink:href="#18" y="2.171"/><text y="6.012" class="g">$</text><text x="2.004" y="6.012" class="h">npx</text><text x="6.012" y="6.012" class="h">@goobits/typemill</text><text x="24.048" y="6.012" class="h">tool</text><text x="29.058" y="6.012" class="h">rename_al</text></svg><svg x="4880"><use xlink:href="#a"/><use xlink:href="#17"/><use xlink:href="#18" y="2.171"/><use xlink:href="#19" y="4.342"/></svg><svg x="4960"><use xlink:href="#a"/><use xlink:href="#17"/><use xlink:href="#18" y="2.171"/><use xlink:href="#19" y="4.342"/></svg><svg x="5040"><use xlink:href="#a"/><use xlink:href="#17"/><use xlink:href="#18" y="2.171"/><use xlink:href="#19" y="4.342"/><use xlink:href="#20" y="6.513"/><use xlink:href="#21" y="8.684"/><use xlink:href="#22" y="10.855"/></svg><svg x="5120"><use xlink:href="#a"/><use xlink:href="#17"/><use xlink:href="#18" y="2.171"/><use xlink:href="#19" y="4.342"/><use xlink:href="#20" y="6.513"/><use xlink:href="#21" y="8.684"/><use xlink:href="#22" y="10.855"/><text y="16.867" class="h">{</text><text x="2.004" y="19.038" class="h">&quot;success&quot;:</text><text x="13.026" y="19.038" class="h">true,</text><text x="2.004" y="21.209" class="h">&quot;plan&quot;:</text><text x="10.02" y="21.209" class="h">{</text><text x="4.008" y="23.38" class="h">&quot;renames&quot;:</text><text x="15.03" y="23.38" class="h">[</text><text x="6.012" y="25.551" class="h">{</text><text x="8.016" y="25.551" class="h">&quot;from&quot;:</text><text x="16.032" y="25.551" class="h">&quot;src/utils.ts&quot;,</text><text x="32.064" y="25.551" class="h">&quot;to&quot;:</text><text x="38.076" y="25.551" class="h">&quot;src/helpers.ts&quot;</text><text x="55.11" y="25.551" class="h">}</text><text x="4.008" y="27.722" class="h">],</text><text x="4.008" y="29.893" class="h">&quot;importUpdates&quot;:</text><text x="21.042" y="29.893" class="h">[</text><text x="6.012" y="32.064" class="h">{</text><text x="8.016" y="32.064" class="h">&quot;file&quot;:</text><text x="16.032" y="32.064" class="h">&quot;src/app.ts&quot;,</text><text x="30.06" y="32.064" class="h">&quot;line&quot;:</text><text x="38.076" y="32.064" class="h">1,</text><text x="41.082" y="32.064" class="h">&quot;change&quot;:</text><text x="51.102" y="32.064" class="h">&quot;&apos;./utils&apos;</text><text x="62.124" y="32.064" class="h">→</text><text x="64.128" y="32.064" class="h">&apos;./helpers&apos;&quot;</text><text x="77.154" y="32.064" class="h">},</text><text x="6.012" y="34.235" class="h">{</text><text x="8.016" y="34.235" class="h">&quot;file&quot;:</text><text x="16.032" y="34.235" class="h">&quot;src/index.ts&quot;,</text><text x="32.064" y="34.235" class="h">&quot;line&quot;:</text><text x="40.08" y="34.235" class="h">3,</text><text x="43.086" y="34.235" class="h">&quot;change&quot;:</text><text x="53.106" y="34.235" class="h">&quot;&apos;./utils&apos;</text><text x="64.128" y="34.235" class="h">→</text><text x="66.132" y="34.235" class="h">&apos;./helpers&apos;&quot;</text><text x="79.158" y="34.235" class="h">}</text><text y="36.406" class="h">,</text><text x="6.012" y="38.577" class="h">{</text><text x="8.016" y="38.577" class="h">&quot;file&quot;:</text><text x="16.032" y="38.577" class="h">&quot;src/components/Button.tsx&quot;,</text><text x="45.09" y="38.577" class="h">&quot;line&quot;:</text><text x="53.106" y="38.577" class="h">2,</text><text x="56.112" y="38.577" class="h">&quot;change&quot;:</text><text x="66.132" y="38.577" class="h">&quot;&apos;../utils&apos;</text><text x="78.156" y="38.577" class="h">→</text><text y="40.748" class="h">&apos;../helpers&apos;&quot;</text><text x="14.028" y="40.748" class="h">}</text><text x="4.008" y="42.919" class="h">]</text><text x="2.004" y="45.09" class="h">},</text><text x="2.004" y="47.261" class="h">&quot;dryRun&quot;:</text><text x="12.024" y="47.261" class="h">true,</text><text x="2.004" y="49.432" class="h">&quot;message&quot;:</text><text x="13.026" y="49.432" class="h">&quot;Preview</text><text x="22.044" y="49.432" class="h">only.</text><text x="28.056" y="49.432" class="h">Set</text><text x="32.064" y="49.432" class="h">dryRun:</text><text x="40.08" y="49.432" class="h">false</text><text x="46.092" y="49.432" class="h">to</text><text x="49.098" y="49.432" class="h">apply.&quot;</text><text y="51.603" class="h">}</text></svg><svg x="5200"><use xlink:href="#a"/></svg><svg x="5280"><use xlink:href="#a"/><use xlink:href="#23"/></svg><svg x="5360"><use xlink:href="#a"/><use xlink:href="#23"/><use xlink:href="#24" y="2.171"/></svg><svg x="5440"><use xlink:href="#a"/><use xlink:href="#23"/><use xlink:href="#24" y="2.171"/><use xlink:href="#25" y="4.342"/></svg><svg x="5520"><use xlink:href="#a"/><use xlink:href="#23"/><use xlink:href="#24" y="2.171"/><use xlink:href="#25" y="4.342"/><text y="10.354" class="l">Demo</text><text x="5.01" y="10.354" class="l">complete!</text></svg></svg></g></g></svg></svg>